# xmcd CD database file
#
# Track frame offsets:
#	182
#	25112
#	50512
#	72652
#	95735
#	113117
#	128932
#	155897
#	180097
#	204985
#
# Disc length: 3006 seconds
#
# Revision: 3
# Processed by: cddbd v1.5.1PL0 Copyright (c) Steve Scherf et al.
# Submitted via: CDex 1.51
#
DISCID=8a0bbc0a
DTITLE=Anna Oxa - Cantautori
DYEAR=1993
DGENRE=Pop
TTITLE0=Prendila così
TTITLE1=Futura
TTITLE2=Anna verrà
TTITLE3=Anima
TTITLE4=Si può
TTITLE5=Bellamore
TTITLE6=Avrai
TTITLE7=Diamante
TTITLE8=051-222525
TTITLE9=Bocca di rosa
EXTD=YEAR: 1993
EXTT0=
EXTT1=
EXTT2=
EXTT3=
EXTT4=
EXTT5=
EXTT6=
EXTT7=
EXTT8=
EXTT9=
PLAYORDER=
